<?xml version="1.0" standalone="no"?>
<!DOCTYPE svg PUBLIC "-//W3C//DTD SVG 20010904//EN"
 "http://www.w3.org/TR/2001/REC-SVG-20010904/DTD/svg10.dtd">
<svg version="1.0" xmlns="http://www.w3.org/2000/svg"
 width="700.000000pt" height="700.000000pt" viewBox="0 0 700.000000 700.000000"
 preserveAspectRatio="xMidYMid meet">
<metadata>
Created by potrace 1.14, written by Peter Selinger 2001-2017
</metadata>
<g transform="translate(0.000000,700.000000) scale(0.100000,-0.100000)"
fill="#000000" stroke="none">
<path d="M590 6976 c-301 -79 -510 -299 -576 -606 -12 -55 -13 -515 -11 -2895
1 -1557 6 -2842 10 -2857 69 -252 196 -416 415 -536 55 -30 159 -62 235 -72
94 -12 5674 -10 5719 3 271 75 458 229 557 463 65 152 61 -56 58 3054 -1 1554
-6 2838 -10 2854 -26 94 -56 165 -114 271 -24 42 -136 156 -197 200 -68 48
-164 95 -254 122 -54 17 -225 18 -2902 20 l-2845 1 -85 -22z"/>
</g>
</svg>
